<svg id="wavesvg" viewBox="0 0 36 16" shape-rendering="geometricPrecision"><path d="M1,8 C1,8.4 1.5,8.4 1.5,8 S2,7.6 2,8 L2,9.6 C2,9.9 2.5,9.9 2.5,9.6 L2.5,5.3 C2.5,5 3,5 3,5.3 L3,10.3 C3,10.6 3.5,10.6 3.5,10.3 L3.5,6 C3.5,5.7 4,5.7 4,6 L4,10 C4,10.3 4.5,10.3 4.5,10 L4.5,5.9 C4.5,5.6 5,5.6 5,5.9 L5,10.2 C5,10.5 5.5,10.5 5.5,10.2 L5.5,6.2 C5.5,5.9 6,5.9 6,6.2 L6,10 C6,10.3 6.5,10.3 6.5,10 L6.5,5.9 C6.5,5.6 7,5.6 7,5.9 L7,10.6 C7,10.9 7.5,10.9 7.5,10.6 L7.5,5.9 C7.5,5.6 8,5.6 8,5.9 L8,10.1 C8,10.4 8.5,10.4 8.5,10.1 L8.5,7 C8.5,6.7 9,6.7 9,7 L9,9.7 C9,10 9.5,10 9.5,9.7 L9.5,7.2 C9.5,6.9 10,6.9 10,7.2 L10,9.7 C10,10 10.5,10 10.5,9.7 L10.5,5.4 C10.5,5.1 11,5.1 11,5.4 L11,10.4 C11,10.7 11.5,10.7 11.5,10.4 L11.5,7.3 C11.5,7 12,7 12,7.3 L12,10.8 C12,11.1 12.5,11.1 12.5,10.8 L12.5,6.4 C12.5,6.1 13,6.1 13,6.4 L13,9.9 C13,10.2 13.5,10.2 13.5,9.9 L13.5,7.1 C13.5,6.8 14,6.8 14,7.1 L14,11.2 C14,11.5 14.5,11.5 14.5,11.2 L14.5,6.2 C14.5,5.9 15,5.9 15,6.2 L15,9.2 C15,9.5 15.5,9.5 15.5,9.2 L15.5,6.9 C15.5,6.6 16,6.6 16,6.9 L16,10.7 C16,11 16.5,11 16.5,10.7 L16.5,5.8 C16.5,5.5 17,5.5 17,5.8 L17,9.4 C17,9.7 17.5,9.7 17.5,9.4 L17.5,6.6 C17.5,6.3 18,6.3 18,6.6 L18,9.3 C18,9.6 18.5,9.6 18.5,9.3 L18.5,6.2 C18.5,5.9 19,5.9 19,6.2 L19,9.4 C19,9.7 19.5,9.7 19.5,9.4 L19.5,6.7 C19.5,6.4 20,6.4 20,6.7 L20,10.3 C20,10.6 20.5,10.6 20.5,10.3 L20.5,5.1 C20.5,4.8 21,4.8 21,5.1 L21,9.1 C21,9.4 21.5,9.4 21.5,9.1 L21.5,6.3 C21.5,6 22,6 22,6.3 L22,9.6 C22,9.9 22.5,9.9 22.5,9.6 L22.5,7.1 C22.5,6.8 23,6.8 23,7.1 L23,10 C23,10.3 23.5,10.3 23.5,10 L23.5,6.1 C23.5,5.8 24,5.8 24,6.1 L24,10.2 C24,10.5 24.5,10.5 24.5,10.2 L24.5,5.4 C24.5,5.1 25,5.1 25,5.4 L25,10.6 C25,10.9 25.5,10.9 25.5,10.6 L25.5,6.9 C25.5,6.6 26,6.6 26,6.9 L26,8.9 C26,9.2 26.5,9.2 26.5,8.9 L26.5,6.8 C26.5,6.5 27,6.5 27,6.8 L27,9.8 C27,10.1 27.5,10.1 27.5,9.8 L27.5,6.9 C27.5,6.6 28,6.6 28,6.9 L28,8.8 C28,9.1 28.5,9.1 28.5,8.8 L28.5,6.7 C28.5,6.4 29,6.4 29,6.7 L29,9.4 C29,9.7 29.5,9.7 29.5,9.4 L29.5,5.7 C29.5,5.4 30,5.4 30,5.7 L30,9.7 C30,10 30.5,10 30.5,9.7 L30.5,6.8 C30.5,6.5 31,6.5 31,6.8 L31,8.4 C31,8.7 31.5,8.7 31.5,8.4 L31.5,5.2 C31.5,4.9 32,4.9 32,5.2 L32,9.4 C32,9.7 32.5,9.7 32.5,9.4 L32.5,6.5 C32.5,6.2 33,6.2 33,6.5 L33,9.8 C33,10.1 33.5,10.1 33.5,9.8 L33.5,6.7 C33.5,6.4 34,6.4 34,6.7 L34,8 C34,8.4 34.5,8.4 34.5,8 S35,7.6 35,8" fill="transparent" stroke="#282831"></path></svg>