<svg xmlns="http://www.w3.org/2000/svg" viewBox="0 0 74 64" height="24px"><path fill-rule="evenodd" clip-rule="evenodd" d="M32.9807 0C28.2797 0 24.0615 2.88418 22.3609 7.26138L0.315186 64H17.0623L34.415 19.3399H34.4223C34.8577 18.2513 35.9231 17.4823 37.1683 17.4823C38.4136 17.4823 39.4789 18.2513 39.9144 19.3399H42.2264V10.2808H37.9347L41.9293 0H32.9807Z" fill="#2545D3"></path><path fill-rule="evenodd" clip-rule="evenodd" d="M22.3621 7.2614C23.9938 3.06213 27.9423 0.236959 32.4112 0.0142052L32.4056 0H32.9819H39.4244H41.6409C46.3417 0 50.5599 2.88418 52.2607 7.26138L74.3063 64H57.2728L35.8947 8.97993C34.6708 6.28349 31.9523 4.40789 28.7952 4.40789C25.6304 4.40789 22.9063 6.2927 21.6866 8.99981L22.3621 7.2614Z" fill="#566DE8"></path>
</svg>