<svg width="38" height="38" viewBox="0 0 38 38" fill="none" xmlns="http://www.w3.org/2000/svg">
<g clip-path="url(#clip0_16925_36)">
<path d="M16.4868 17.1021L16.4849 13.971C16.4849 13.7846 16.4113 13.6058 16.2799 13.4739L13.5793 10.7581L11.6953 12.8445L16.0982 17.2637C16.2417 17.4077 16.487 17.3055 16.487 17.1019L16.4868 17.1021Z" fill="url(#paint0_linear_16925_36)"></path>
<path d="M10.5211 24.6512L5.21403 19.3358L3.31738 21.4038L10.3378 28.4439C10.4813 28.5877 10.7264 28.4857 10.7264 28.2821V25.1485C10.7264 24.9619 10.6525 24.7831 10.5211 24.6512V24.6512Z" fill="url(#paint1_linear_16925_36)"></path>
<path d="M17.591 0.115691C8.06581 0.776174 0.453435 8.6901 0.0947406 18.267C-0.255356 27.6176 6.15063 35.529 14.7996 37.4698L3.26898 25.8942C3.10374 25.7283 3.01104 25.5031 3.01158 25.2685L3.02018 21.5289C3.02045 21.3728 3.2088 21.2946 3.31869 21.4051L5.21533 19.3371C5.09631 19.2176 5.09631 19.0237 5.21533 18.9045L7.0397 17.0776C7.15873 16.9584 7.35138 16.9587 7.47014 17.0776L13.6338 23.2644C13.8957 23.5274 14.0427 23.8839 14.0427 24.2555V30.7107C14.0427 31.6406 14.4108 32.5325 15.0659 33.19L19.7654 37.9072C20.9592 37.856 22.1229 37.692 23.2481 37.4272L17.2946 31.4494C17.0001 31.1538 16.8346 30.7528 16.8346 30.3347V24.0967C16.8346 23.074 16.43 22.0931 15.7094 21.3701L9.45357 15.0908C9.33454 14.9713 9.33454 14.7774 9.45384 14.6579L11.2656 12.845C11.3846 12.7258 11.5773 12.7261 11.696 12.8453L13.58 10.7589C13.5448 10.7185 13.5115 10.6742 13.4782 10.6284C12.9403 9.89968 12.6133 8.69792 12.9946 7.3427C13.2229 6.4751 13.6972 5.82082 14.5715 5.02576C14.6483 4.9559 14.7695 4.9524 14.8477 5.02036L17.1122 6.98967L17.5582 7.3783C17.7296 7.52744 17.9343 7.63317 18.1549 7.68576L25.2152 9.37027C25.2976 9.38969 25.3734 9.43203 25.4331 9.49028L32.6851 16.7521C32.8117 16.8737 32.8837 17.0434 32.8837 17.2197V18.7637C32.8837 19.0011 32.824 19.2349 32.7101 19.4428L29.1213 26.0061C28.9649 26.2936 28.6148 26.4139 28.316 26.2831L26.6617 25.5595H20.6158C20.2273 25.5595 19.9127 25.8756 19.9127 26.2653V28.9711C19.9127 29.3436 20.0594 29.7012 20.3208 29.9655L26.5828 36.299C33.1774 33.3521 37.7764 26.7133 37.7764 18.9962C37.7764 8.09758 28.6046 -0.648893 17.5899 0.114882L17.591 0.115691Z" fill="#F5FF80"></path>
</g>
<defs>
<linearGradient id="paint0_linear_16925_36" x1="16.5319" y1="14.0686" x2="13.4791" y2="14.0234" gradientUnits="userSpaceOnUse">
<stop stop-color="#F5FF80" stop-opacity="0"></stop>
<stop offset="1" stop-color="#F5FF80"></stop>
</linearGradient>
<linearGradient id="paint1_linear_16925_36" x1="10.6624" y1="23.9233" x2="6.85838" y2="23.9233" gradientUnits="userSpaceOnUse">
<stop stop-color="#F5FF80" stop-opacity="0"></stop>
<stop offset="0.96" stop-color="#F5FF80"></stop>
</linearGradient>
<clipPath id="clip0_16925_36">
<rect width="37.8577" height="38" rx="18.9288" fill="white"></rect>
</clipPath>
</defs>
</svg>